<svg xmlns="http://www.w3.org/2000/svg" viewBox="0 0 1200 675" width="1200" height="675" role="img" aria-label="Restaurant Build-Out 101">
  <defs>
    <linearGradient id="bg1" x1="0" y1="0" x2="1" y2="1">
      <stop offset="0" stop-color="#722b32"/>
      <stop offset="1" stop-color="#5a2128"/>
    </linearGradient>
  </defs>
  <rect width="1200" height="675" fill="url(#bg1)"/>
  <circle cx="980" cy="120" r="220" fill="#ffa311" opacity="0.16"/>
  <circle cx="1080" cy="560" r="150" fill="#ffa311" opacity="0.10"/>
  <!-- storefront motif -->
  <g transform="translate(820,300)" fill="none" stroke="#ffa311" stroke-width="6" stroke-linecap="round" stroke-linejoin="round">
    <path d="M0 220 V90 H180 V220"/>
    <path d="M0 90 L20 50 H160 L180 90"/>
    <path d="M20 50 L40 90 M160 50 L140 90"/>
    <rect x="20" y="120" width="60" height="100"/>
    <rect x="100" y="120" width="60" height="100"/>
    <!-- fork & knife -->
    <path d="M250 60 v70 M250 60 v-20 M244 60 v-20 M256 60 v-20" stroke-width="5"/>
    <path d="M276 40 v90 M276 40 q-12 8 -12 24 M276 40 q12 8 12 24" stroke-width="5"/>
  </g>
  <text x="80" y="120" font-family="Helvetica Neue, Arial, sans-serif" font-size="22" font-weight="700" letter-spacing="3" fill="#ffa311">RED&#8217;S RRC &#183; BLOG</text>
  <rect x="80" y="150" width="64" height="5" fill="#ffa311"/>
  <text x="80" y="320" font-family="Helvetica Neue, Arial, sans-serif" font-size="62" font-weight="800" fill="#ffffff">Restaurant</text>
  <text x="80" y="392" font-family="Helvetica Neue, Arial, sans-serif" font-size="62" font-weight="800" fill="#ffffff">Build-Out 101</text>
  <text x="80" y="452" font-family="Helvetica Neue, Arial, sans-serif" font-size="30" font-weight="500" fill="#ffd9a0">What owners should expect</text>
</svg>
